<?xml version="1.0" encoding="utf-8"?>
<!-- Generator: Adobe Illustrator 16.0.0, SVG Export Plug-In . SVG Version: 6.00 Build 0)  -->
<!DOCTYPE svg PUBLIC "-//W3C//DTD SVG 1.1//EN" "http://www.w3.org/Graphics/SVG/1.1/DTD/svg11.dtd">
<svg version="1.1" id="Layer_1" xmlns="http://www.w3.org/2000/svg" xmlns:xlink="http://www.w3.org/1999/xlink" x="0px" y="0px"
	 width="960px" height="560px" viewBox="0 0 960 560" enable-background="new 0 0 960 560" xml:space="preserve">
<path fill="#FFFFFF" stroke="#000000" stroke-miterlimit="10" d="M28.051,37.43"/>
<g>
	<g>
		<path fill="#99FFFF" d="M-5.047,46.065C21.229,63.834,47.504,81.604,73.78,99.373c52.908,35.779,105.815,71.559,158.723,107.338
			c40.661,27.498,81.322,54.995,121.982,82.492c3.695,2.499,7.391,4.998,11.086,7.497c1.071,0.725,3.144,2.432-0.597-0.592
			c2.962,2.394,6.07,4.59,9.277,6.642c14.452,9.244,31.06,15.783,47.979,18.592c26.074,4.328,52.024-0.777,74.85-14.054
			c13.46-7.829,24.981-18.572,38.379-26.595c10.992-6.582,22.64-11.755,35.013-15.099c19.698-5.323,40.646-4.217,58.776,3.762
			c9.124,4.015,17.669,9.499,25.226,15.865c10.202,8.596,18.874,18.5,29.896,26.194c20.359,14.214,45.308,17.577,68.534,8.802
			c13.07-4.938,24.722-12.571,35.657-21.165c1.421-1.116,2.831-2.245,4.232-3.386c-0.255,0.208,4.425-3.616,2.259-2.036
			c0.08-0.059,0.16-0.117,0.241-0.176c0.57-0.416,1.14-0.832,1.71-1.248c6.458-4.71,12.916-9.42,19.373-14.131
			c24.445-17.831,48.891-35.661,73.335-53.491c25.112-18.317,50.224-36.633,75.335-54.95c4.395-3.206,6.554-8.619,3.588-13.682
			c-2.545-4.345-9.269-6.807-13.682-3.587c-39.365,28.713-78.729,57.426-118.095,86.139c-16.881,12.313-33.762,24.626-50.643,36.939
			c-4.802,3.502-9.188,7.531-13.964,11.076c-9.881,7.332-20.631,13.694-32.548,16.998c-23.268,6.451-43.957-6.072-60.301-22.239
			c-15.842-15.669-33.501-28.417-55.086-34.85c-22.063-6.575-45.882-4.817-67.531,2.41c-13.201,4.406-25.712,10.839-37.428,18.296
			c-13.169,8.383-24.617,19.039-38.528,26.274c-20.315,10.566-43.672,11.866-65.243,6.042c-13.136-3.546-24.721-9.044-36.357-17.434
			c-0.492-0.354-0.978-0.718-1.459-1.085c3.089,2.355,1.98,1.546,1.312,1.006c-0.827-0.669-1.513-1.22-2.33-1.772
			c-0.925-0.626-1.851-1.252-2.776-1.877c-12.085-8.173-24.17-16.346-36.255-24.519c-48.615-32.876-97.231-65.753-145.846-98.63
			c-48.81-33.008-97.62-66.017-146.429-99.024c-13.466-9.107-26.933-18.213-40.398-27.32C-5.67,21.548-15.665,38.884-5.047,46.065
			L-5.047,46.065z"/>
	</g>
</g>
</svg>
